<svg xmlns="http://www.w3.org/2000/svg" width="24" height="24" viewBox="0 0 24 24" fill="none">
  <path d="M17.7826 7.31149C16.3981 6.19736 14.2079 6.0085 14.1141 6.00171C13.9688 5.98948 13.8302 6.071 13.7704 6.20552C13.7649 6.21367 13.7174 6.32372 13.6644 6.49492C14.5802 6.64981 15.7052 6.96095 16.7228 7.59274C16.8859 7.69329 16.9361 7.90796 16.8356 8.071C16.769 8.17834 16.6562 8.23677 16.5394 8.23677C16.4769 8.23677 16.413 8.2191 16.356 8.18378C14.606 7.09818 12.4212 7.04383 12 7.04383C11.5788 7.04383 9.39266 7.09818 7.64402 8.18378C7.48098 8.28568 7.2663 8.23541 7.16576 8.07236C7.06386 7.90796 7.11413 7.69465 7.27717 7.59274C8.29484 6.96231 9.41984 6.64981 10.3356 6.49628C10.2826 6.32372 10.2351 6.21503 10.231 6.20552C10.1698 6.071 10.0326 5.98677 9.88587 6.00171C9.79212 6.0085 7.6019 6.19736 6.19837 7.32644C5.46603 8.00443 4 11.9664 4 15.3917C4 15.4528 4.0163 15.5112 4.0462 15.5642C5.05707 17.3414 7.81658 17.8061 8.44565 17.8264C8.44837 17.8264 8.45245 17.8264 8.45652 17.8264C8.56793 17.8264 8.67255 17.7734 8.73777 17.6838L9.37364 16.8088C7.65761 16.3658 6.78125 15.6131 6.73098 15.5683C6.58696 15.4419 6.57337 15.2218 6.70109 15.0778C6.82745 14.9338 7.04755 14.9202 7.19158 15.0465C7.21196 15.0656 8.82609 16.4351 12 16.4351C15.1793 16.4351 16.7935 15.0601 16.8098 15.0465C16.9538 14.9215 17.1726 14.9338 17.3003 15.0792C17.4266 15.2232 17.413 15.4419 17.269 15.5683C17.2188 15.6131 16.3424 16.3658 14.6264 16.8088L15.2622 17.6838C15.3274 17.7734 15.4321 17.8264 15.5435 17.8264C15.5476 17.8264 15.5516 17.8264 15.5543 17.8264C16.1834 17.8061 18.9429 17.3414 19.9538 15.5642C19.9837 15.5112 20 15.4528 20 15.3917C20 11.9664 18.534 8.00443 17.7826 7.31149ZM9.73913 14.0004C9.06658 14.0004 8.52174 13.3781 8.52174 12.609C8.52174 11.84 9.06658 11.2177 9.73913 11.2177C10.4117 11.2177 10.9565 11.84 10.9565 12.609C10.9565 13.3781 10.4117 14.0004 9.73913 14.0004ZM14.2609 14.0004C13.5883 14.0004 13.0435 13.3781 13.0435 12.609C13.0435 11.84 13.5883 11.2177 14.2609 11.2177C14.9334 11.2177 15.4783 11.84 15.4783 12.609C15.4783 13.3781 14.9334 14.0004 14.2609 14.0004Z" fill="#00EB8F"/>
</svg>